# Made in Blockbench 4.6.4
mtllib frumpo.mtl

o sphere
v 0 -0.5 0
v 0 0.5 0
v -4.329780281177466e-17 0.35355339059327373 -0.35355339059327373
v -6.123233995736766e-17 0 -0.5
v -4.329780281177467e-17 -0.35355339059327373 -0.3535533905932738
v -0.24999999999999997 0.35355339059327373 -0.24999999999999997
v -0.3535533905932738 0 -0.35355339059327373
v -0.25000000000000006 -0.35355339059327373 -0.25
v -0.35355339059327373 0.35355339059327373 2.164890140588733e-17
v -0.5 0 3.061616997868383e-17
v -0.3535533905932738 -0.35355339059327373 2.1648901405887335e-17
v -0.24999999999999997 0.35355339059327373 0.24999999999999997
v -0.35355339059327373 0 0.3535533905932738
v -0.25 -0.35355339059327373 0.25000000000000006
v 0 0.35355339059327373 0.35355339059327373
v 0 0 0.5
v 0 -0.35355339059327373 0.3535533905932738
v 0.24999999999999997 0.35355339059327373 0.25
v 0.3535533905932738 0 0.3535533905932738
v 0.25000000000000006 -0.35355339059327373 0.25
v 0.35355339059327373 0.35355339059327373 2.1648901405887332e-17
v 0.5 0 3.0616169978683824e-17
v 0.3535533905932738 -0.35355339059327373 2.1648901405887332e-17
v 0.25 0.35355339059327373 -0.24999999999999994
v 0.3535533905932738 0 -0.35355339059327373
v 0.25 -0.35355339059327373 -0.24999999999999997
vt 0.06666666666666667 0.6772687500000001
vt 0.1353 0.6772687500000001
vt 0.40931666666666666 0.8541666666666667
vt 0.028021875 0.675
vt 0 0.4857218750000001
vt 0.07259375 0.48363854166666675
vt 0.11748854166666671 0.6666666666666667
vt 0.014583333333333334 0.48125000000000007
vt 0.03635520833333333 0.3107218749999999
vt 0.100821875 0.31280520833333325
vt 0.08092708333333334 0.4833333333333334
vt 0.11030000000000002 0.3145833333333333
vt 0.04791666666666667 0.30833333333333335
vt 0.3988999999999999 0.11893541666666663
vt 0.11875000000000013 0.6751854166666669
vt 0.21655000000000021 0.6772687500000003
vt 0.4176500000000001 0.8479166666666667
vt 0.11968854166666686 0.6770833333333333
vt 0.07291666666666674 0.4898885416666666
vt 0.14342708333333354 0.4878052083333333
vt 0.19457187500000012 0.6770833333333333
vt 0.07291666666666666 0.48958333333333326
vt 0.09052187500000015 0.316971875
vt 0.19457187500000017 0.31280520833333336
vt 0.1517604166666669 0.49583333333333324
vt 0.11973333333333301 0.30833333333333335
vt 0.20318333333333302 0.30833333333333335
vt 0.4354166666666667 0.11476875000000009
vt 0.2 0.6751854166666668
vt 0.33529999999999993 0.6751854166666668
vt 0.45514999999999994 0.8625
vt 0.19677187499999996 0.6729166666666667
vt 0.14374999999999996 0.5023885416666667
vt 0.2871770833333333 0.4961385416666667
vt 0.3320718749999999 0.6729166666666667
vt 0.14375 0.4979166666666667
vt 0.20302187499999996 0.3086385416666666
vt 0.34040520833333326 0.3086385416666666
vt 0.29342708333333345 0.5
vt 0.3457166666666665 0.3104166666666667
vt 0.21041666666666667 0.3104166666666667
vt 0.46140000000000003 0.12101875000000006
vt 0.32083333333333336 0.6689354166666668
vt 0.45613333333333334 0.6689354166666668
vt 0.4613999999999999 0.8479166666666667
vt 0.3342718749999999 0.6791666666666667
vt 0.2833333333333333 0.48988854166666673
vt 0.47467708333333336 0.48988854166666673
vt 0.4654052083333332 0.6791666666666667
vt 0.2791666666666667 0.4979166666666667
vt 0.3446885416666665 0.3086385416666666
vt 0.46957187499999986 0.3086385416666666
vt 0.4705104166666666 0.4979166666666667
vt 0.47071666666666656 0.30625
vt 0.3354166666666666 0.30625
vt 0.4822333333333332 0.12518541666666672
vt 0.46875 0.6731020833333334
vt 0.60405 0.6731020833333334
vt 0.4634833333333335 0.8541666666666666
vt 0.4738552083333334 0.6770833333333333
vt 0.4625 0.4878052083333332
vt 0.6538437500000001 0.4878052083333332
vt 0.6112385416666667 0.6770833333333333
vt 0.4666666666666667 0.49375
vt 0.47802187500000004 0.3065552083333333
vt 0.5987385416666667 0.30447187499999995
vt 0.6580104166666667 0.49375
vt 0.6123833333333334 0.30625
vt 0.47708333333333336 0.30625
vt 0.4947333333333336 0.12518541666666672
vt 0.5958333333333333 0.6731020833333335
vt 0.7977999999999998 0.6814354166666668
vt 0.49473333333333347 0.8541666666666666
vt 0.6196885416666666 0.675
vt 0.6541666666666666 0.49822187500000004
vt 0.8142604166666667 0.4961385416666667
vt 0.7862385416666666 0.6854166666666667
vt 0.6645833333333334 0.49583333333333335
vt 0.6051052083333336 0.2919718750000002
vt 0.7737385416666668 0.3086385416666668
vt 0.8017604166666666 0.4979166666666667
vt 0.7498833333333333 0.30833333333333335
vt 0.6145833333333334 0.30833333333333335
vt 0.5197333333333336 0.13768541666666667
vt 0.7749999999999999 0.6835187500000001
vt 0.8394666666666666 0.6814354166666667
vt 0.55515 0.86875
vt 0.7946885416666669 0.68125
vt 0.8166666666666669 0.4878052083333334
vt 0.8600937500000001 0.49197187500000017
vt 0.8445718750000003 0.6854166666666667
vt 0.8020833333333334 0.4916666666666668
vt 0.7676052083333336 0.30863854166666693
vt 0.8279052083333335 0.3044718750000003
vt 0.8413437500000001 0.4916666666666669
vt 0.8384833333333331 0.29375000000000007
vt 0.7698499999999997 0.30000000000000016
vt 0.5416666666666665 0.1481020833333333
vt 0.8354166666666667 0.6856020833333335
vt 0.9061333333333336 0.6835187500000002
vt 0.5697333333333331 0.8645833333333334
vt 0.8366781250000002 0.6854166666666667
vt 0.8628229166666666 0.48155520833333343
vt 0.9375 0.48988854166666673
vt 0.8928114583333336 0.6770833333333334
vt 0.8399062499999999 0.47916666666666674
vt 0.830428125 0.30447187500000017
vt 0.9011447916666668 0.30238854166666684
vt 0.9416666666666668 0.4833333333333334
vt 0.9019666666666668 0.2979166666666667
vt 0.8312499999999998 0.2958333333333334
vt 0.5426500000000002 0.1335187499999999
vn -0.15655801081562162 0.912486956834076 -0.3779644730092273
vn -0.3574067443365933 0.35740674433659336 -0.8628562094610168
vn -0.35740674433659336 -0.35740674433659325 -0.8628562094610168
vn -0.15655801081562157 -0.912486956834076 -0.3779644730092273
vn -0.37796447300922725 0.912486956834076 -0.15655801081562157
vn -0.8628562094610169 0.35740674433659336 -0.3574067443365932
vn -0.862856209461017 -0.35740674433659325 -0.3574067443365932
vn -0.3779644730092273 -0.912486956834076 -0.1565580108156215
vn -0.3779644730092273 0.912486956834076 0.15655801081562162
vn -0.8628562094610168 0.35740674433659336 0.3574067443365933
vn -0.8628562094610168 -0.35740674433659325 0.3574067443365933
vn -0.3779644730092273 -0.912486956834076 0.15655801081562157
vn -0.1565580108156216 0.912486956834076 0.3779644730092273
vn -0.3574067443365932 0.35740674433659336 0.8628562094610169
vn -0.35740674433659325 -0.35740674433659325 0.8628562094610168
vn -0.15655801081562154 -0.912486956834076 0.3779644730092273
vn 0.1565580108156215 0.912486956834076 0.37796447300922736
vn 0.35740674433659314 0.35740674433659336 0.862856209461017
vn 0.3574067443365933 -0.3574067443365932 0.8628562094610168
vn 0.15655801081562157 -0.912486956834076 0.3779644730092273
vn 0.37796447300922736 0.912486956834076 0.15655801081562157
vn 0.8628562094610169 0.35740674433659336 0.3574067443365932
vn 0.8628562094610168 -0.3574067443365933 0.35740674433659325
vn 0.3779644730092273 -0.912486956834076 0.15655801081562154
vn 0.3779644730092273 0.912486956834076 -0.15655801081562154
vn 0.8628562094610168 0.35740674433659336 -0.3574067443365932
vn 0.8628562094610168 -0.35740674433659325 -0.35740674433659336
vn 0.37796447300922736 -0.912486956834076 -0.1565580108156216
vn 0.15655801081562157 0.912486956834076 -0.3779644730092273
vn 0.3574067443365934 0.3574067443365934 -0.8628562094610168
vn 0.35740674433659336 -0.35740674433659325 -0.8628562094610169
vn 0.1565580108156216 -0.912486956834076 -0.3779644730092273
usemtl m_9d75bfbb-c0b9-314e-c24e-451f889e63a2
f 3/1/1 6/2/1 2/3/1
f 3/4/2 4/5/2 7/6/2 6/7/2
f 4/8/3 5/9/3 8/10/3 7/11/3
f 8/12/4 5/13/4 1/14/4
f 6/15/5 9/16/5 2/17/5
f 6/18/6 7/19/6 10/20/6 9/21/6
f 7/22/7 8/23/7 11/24/7 10/25/7
f 11/26/8 8/27/8 1/28/8
f 9/29/9 12/30/9 2/31/9
f 9/32/10 10/33/10 13/34/10 12/35/10
f 10/36/11 11/37/11 14/38/11 13/39/11
f 14/40/12 11/41/12 1/42/12
f 12/43/13 15/44/13 2/45/13
f 12/46/14 13/47/14 16/48/14 15/49/14
f 13/50/15 14/51/15 17/52/15 16/53/15
f 17/54/16 14/55/16 1/56/16
f 15/57/17 18/58/17 2/59/17
f 15/60/18 16/61/18 19/62/18 18/63/18
f 16/64/19 17/65/19 20/66/19 19/67/19
f 20/68/20 17/69/20 1/70/20
f 18/71/21 21/72/21 2/73/21
f 18/74/22 19/75/22 22/76/22 21/77/22
f 19/78/23 20/79/23 23/80/23 22/81/23
f 23/82/24 20/83/24 1/84/24
f 21/85/25 24/86/25 2/87/25
f 21/88/26 22/89/26 25/90/26 24/91/26
f 22/92/27 23/93/27 26/94/27 25/95/27
f 26/96/28 23/97/28 1/98/28
f 24/99/29 3/100/29 2/101/29
f 24/102/30 25/103/30 4/104/30 3/105/30
f 25/106/31 26/107/31 5/108/31 4/109/31
f 5/110/32 26/111/32 1/112/32